<svg xmlns="http://www.w3.org/2000/svg" viewBox="0 0 520 260" role="img" aria-labelledby="iv-dag-title iv-dag-desc">
  <title id="iv-dag-title">IV DAG</title>
  <desc id="iv-dag-desc">Instrument Z moves treatment X, and treatment X moves outcome Y.</desc>
  <rect width="520" height="260" rx="18" fill="#f8fafc"/>
  <text x="260" y="38" text-anchor="middle" font-family="Helvetica, Arial, sans-serif" font-size="22" fill="#0f172a">
    Instrumental Variables DAG
  </text>
  <line x1="112" y1="130" x2="208" y2="130" stroke="#2563eb" stroke-width="6" data-figure-part="edge-zx"/>
  <polygon points="208,130 192,122 192,138" fill="#2563eb"/>
  <line x1="312" y1="130" x2="408" y2="130" stroke="#2563eb" stroke-width="6" data-figure-part="edge-xy"/>
  <polygon points="408,130 392,122 392,138" fill="#2563eb"/>
  <path d="M112 104 C190 28, 330 28, 408 104" fill="none" stroke="#dc2626" stroke-width="5" stroke-dasharray="14 10" opacity="0" data-figure-part="edge-zy-direct"/>
  <polygon points="408,104 395,95 400,112" fill="#dc2626" opacity="0" data-figure-part="edge-zy-direct-arrow"/>
  <circle cx="80" cy="130" r="34" fill="#dbeafe" stroke="#2563eb" stroke-width="4" data-figure-part="node-z"/>
  <circle cx="260" cy="130" r="34" fill="#fef3c7" stroke="#ca8a04" stroke-width="4" data-figure-part="node-x"/>
  <circle cx="440" cy="130" r="34" fill="#fee2e2" stroke="#dc2626" stroke-width="4" data-figure-part="node-y"/>
  <text x="80" y="138" text-anchor="middle" font-family="Helvetica, Arial, sans-serif" font-size="24" fill="#0f172a">Z</text>
  <text x="260" y="138" text-anchor="middle" font-family="Helvetica, Arial, sans-serif" font-size="24" fill="#0f172a">X</text>
  <text x="440" y="138" text-anchor="middle" font-family="Helvetica, Arial, sans-serif" font-size="24" fill="#0f172a">Y</text>
  <text x="160" y="108" text-anchor="middle" font-family="Helvetica, Arial, sans-serif" font-size="16" fill="#1d4ed8">
    Relevance
  </text>
  <text x="350" y="108" text-anchor="middle" font-family="Helvetica, Arial, sans-serif" font-size="16" fill="#1d4ed8">
    Causal channel
  </text>
  <text x="260" y="74" text-anchor="middle" font-family="Helvetica, Arial, sans-serif" font-size="16" fill="#dc2626" opacity="0" data-figure-part="edge-zy-direct-label">
    Exclusion violation
  </text>
</svg>
